<svg width="200" height="200" viewBox="0 0 200 200" fill="none" xmlns="http://www.w3.org/2000/svg">
<rect width="200" height="200" rx="50" fill="url(#paint0_linear_7_5)"/>
<path d="M148.786 34C144.679 34 115.929 42.1875 115.929 79.0312V107.688C115.929 116.719 123.296 124.062 132.357 124.062H140.571V156.812C140.571 161.341 144.242 165 148.786 165C153.329 165 157 161.341 157 156.812V124.062V95.4062V42.1875C157 37.6588 153.329 34 148.786 34ZM58.4286 38.0938C58.4286 35.9957 56.8627 34.2559 54.7578 34.0256C52.6529 33.7953 50.779 35.177 50.317 37.1982L42.5391 72.0719C42.1797 73.6838 42 75.3213 42 76.9588C42 88.7027 51.01 98.3486 62.5357 99.3977V156.812C62.5357 161.341 66.2065 165 70.75 165C75.2935 165 78.9643 161.341 78.9643 156.812V99.3977C90.49 98.3486 99.5 88.7027 99.5 76.9588C99.5 75.3213 99.3203 73.6838 98.9609 72.0719L91.183 37.1982C90.721 35.1514 88.7958 33.7953 86.7165 34.0256C84.6373 34.2559 83.0714 35.9957 83.0714 38.0938V72.4301C83.0714 73.8117 81.942 74.9375 80.5558 74.9375C79.2467 74.9375 78.1685 73.9396 78.0402 72.6348L74.8315 37.7355C74.6518 35.6119 72.8806 34 70.75 34C68.6194 34 66.8482 35.6119 66.6685 37.7355L63.4855 72.6348C63.3571 73.9396 62.279 74.9375 60.9699 74.9375C59.5837 74.9375 58.4542 73.8117 58.4542 72.4301V38.0938H58.4286ZM70.827 76.9844H70.75H70.673L70.75 76.8053L70.827 76.9844Z" fill="white"/>
<defs>
<linearGradient id="paint0_linear_7_5" x1="200" y1="0" x2="0" y2="200" gradientUnits="userSpaceOnUse">
<stop stop-color="#B157F8"/>
<stop offset="1" stop-color="#551588"/>
</linearGradient>
</defs>
</svg>
